# File created by Blade
# Date/Time:  Fri Jan 16 19:18:57 2015
# Frame Rate: 120.000 fps
#------------------------------------------------------
:FULLY-SPECIFIED
:DEGREES
242
root 19.879481 35.771902 -22.089269 -168.241534 -0.679297 -179.281777
Spine -26.394827 1.316408 -0.705356
Head 19.154825 -2.949635 -2.302572
LeftShoulder -13.051265 -60.976356 53.847147
LeftArm 45.609742 -35.068239 -9.197551
LeftForeArm -66.439342 0.000000 78.015860
LeftHand 0.841853 -0.000000 -24.950746
LeftHandThumb1 -26.253704 0.000000 33.147579
RightShoulder -14.120545 26.169396 -51.459044
RightArm 127.863011 67.393445 88.417351
RightForeArm 45.878174 -0.000000 108.213354
RightHand 11.986506 -0.000000 4.735038
RightHandThumb1 -24.326973 -0.000000 -32.862282
LeftUpLeg -3.003457 9.091742 -0.584659
LeftLeg -6.903453 -0.000000 0.000000
LeftFoot -19.207248 25.637967 -16.675600
LeftToeBase 24.411636 -0.000000 -0.000000
RightUpLeg -4.292940 -5.254952 0.532316
RightLeg -2.503494 -0.000000 0.000000
RightFoot -21.112286 -24.653569 18.818268
RightToeBase 22.406429 -0.000000 -0.000000
243
root 19.876238 35.773162 -22.083347 -168.254074 -0.714099 -179.309718
Spine -26.337756 1.316387 -0.695325
Head 19.074664 -2.978055 -2.346060
LeftShoulder -12.975795 -60.818130 53.662622
LeftArm 45.241451 -35.379616 -8.957275
LeftForeArm -66.436786 0.000000 78.342105
LeftHand 0.932825 0.000000 -24.418126
LeftHandThumb1 -26.253704 0.000000 33.147579
RightShoulder -14.295014 26.156035 -51.653881
RightArm 128.533367 67.340368 89.184969
RightForeArm 45.848129 0.000000 108.345890
RightHand 12.079262 -0.000000 4.659482
RightHandThumb1 -24.326973 -0.000000 -32.862282
LeftUpLeg -3.019784 9.084288 -0.613236
LeftLeg -6.876224 -0.000000 0.000000
LeftFoot -19.198139 25.603294 -16.697051
LeftToeBase 24.430019 -0.000000 -0.000000
RightUpLeg -4.292592 -5.250622 0.501635
RightLeg -2.485857 -0.000000 0.000000
RightFoot -21.140116 -24.744575 18.709519
RightToeBase 22.651167 -0.000000 -0.000000
244
root 19.874294 35.773857 -22.077699 -168.253552 -0.746791 -179.333180
Spine -26.302476 1.292769 -0.680010
Head 19.016886 -2.980448 -2.381806
LeftShoulder -12.932731 -60.625771 53.536410
LeftArm 44.891322 -35.712693 -8.770787
LeftForeArm -66.230880 0.000000 78.642217
LeftHand 1.084126 -0.000000 -23.969269
LeftHandThumb1 -26.253704 0.000000 33.147579
RightShoulder -14.464274 26.309963 -51.912959
RightArm 128.862391 67.243870 89.701593
RightForeArm 46.186775 -0.000000 108.454594
RightHand 12.368509 -0.000000 4.782804
RightHandThumb1 -24.326973 -0.000000 -32.862282
LeftUpLeg -3.039152 9.063606 -0.635707
LeftLeg -6.866561 -0.000000 0.000000
LeftFoot -19.179006 25.575368 -16.722457
LeftToeBase 24.375452 -0.000000 -0.000000
RightUpLeg -4.310185 -5.273096 0.481478
RightLeg -2.464214 -0.000000 0.000000
RightFoot -21.142944 -24.714001 18.780818
RightToeBase 22.465802 -0.000000 -0.000000
245
root 19.873104 35.774385 -22.071307 -168.245043 -0.773705 -179.355622
Spine -26.266374 1.252444 -0.642566
Head 18.924036 -2.962334 -2.472422
LeftShoulder -12.982292 -60.480191 53.534303
LeftArm 44.482608 -35.975114 -8.553794
LeftForeArm -66.023423 -0.000000 78.883668
LeftHand 1.244352 0.000000 -23.709421
LeftHandThumb1 -26.253704 0.000000 33.147579
RightShoulder -14.647604 26.494741 -52.250787
RightArm 129.253042 67.069295 90.311192
RightForeArm 46.227943 -0.000000 108.628614
RightHand 12.396933 -0.000000 4.785512
RightHandThumb1 -24.326973 -0.000000 -32.862282
LeftUpLeg -3.069868 9.051143 -0.657896
LeftLeg -6.850061 -0.000000 0.000000
LeftFoot -19.161594 25.553634 -16.716883
LeftToeBase 24.385470 -0.000000 -0.000000
RightUpLeg -4.330198 -5.252598 0.458871
RightLeg -2.454311 -0.000000 0.000000
RightFoot -21.158837 -24.755773 18.831709
RightToeBase 22.297772 -0.000000 -0.000000
246
root 19.871823 35.774641 -22.065657 -168.240383 -0.778465 -179.376093
Spine -26.229449 1.229166 -0.606830
Head 18.852758 -2.995387 -2.575648
LeftShoulder -13.010009 -60.298348 53.528277
LeftArm 44.076513 -36.283518 -8.335198
LeftForeArm -65.994608 -0.000000 79.067742
LeftHand 1.234200 -0.000000 -23.652924
LeftHandThumb1 -26.253704 0.000000 33.147579
RightShoulder -14.787734 26.700510 -52.617194
RightArm 129.698473 66.922960 90.986871
RightForeArm 46.536284 -0.000000 108.802549
RightHand 12.454295 -0.000000 4.924518
RightHandThumb1 -24.326973 -0.000000 -32.862282
LeftUpLeg -3.092837 9.065980 -0.683230
LeftLeg -6.830179 -0.000000 0.000000
LeftFoot -19.164697 25.523350 -16.724945
LeftToeBase 24.218622 -0.000000 -0.000000
RightUpLeg -4.358896 -5.249688 0.442835
RightLeg -2.422583 -0.000000 0.000000
RightFoot -21.206824 -24.880586 18.686547
RightToeBase 22.540803 -0.000000 -0.000000
247
root 19.870278 35.775346 -22.059620 -168.225675 -0.784030 -179.388490
Spine -26.200718 1.178772 -0.546598
Head 18.810145 -2.918381 -2.667600
LeftShoulder -13.167423 -60.180309 53.673118
LeftArm 43.672743 -36.486829 -8.144289
LeftForeArm -65.942330 -0.000000 79.210677
LeftHand 1.458339 -0.000000 -23.558707
LeftHandThumb1 -26.253704 0.000000 33.147579
RightShoulder -14.965778 27.018504 -53.071665
RightArm 129.794828 66.764983 91.403513
RightForeArm 46.660252 -0.000000 109.081132
RightHand 12.359111 -0.000000 4.870691
RightHandThumb1 -24.326973 -0.000000 -32.862282
LeftUpLeg -3.119928 9.071577 -0.699887
LeftLeg -6.829326 -0.000000 0.000000
LeftFoot -19.141282 25.494807 -16.740568
LeftToeBase 24.380522 -0.000000 -0.000000
RightUpLeg -4.394960 -5.260283 0.433558
RightLeg -2.402801 -0.000000 0.000000
RightFoot -21.186560 -24.802976 18.777984
RightToeBase 22.336655 -0.000000 -0.000000
248
root 19.869289 35.775274 -22.053137 -168.191332 -0.793398 -179.393653
Spine -26.187181 1.116525 -0.490311
Head 18.722347 -2.845261 -2.685310
LeftShoulder -13.310312 -60.015029 53.863882
LeftArm 43.190451 -36.778062 -7.884312
LeftForeArm -66.014692 0.000000 79.348284
LeftHand 1.517651 -0.000000 -23.508174
LeftHandThumb1 -26.253704 0.000000 33.147579
RightShoulder -15.174233 27.526426 -53.716556
RightArm 129.335813 66.740009 91.469244
RightForeArm 46.775951 -0.000000 109.465418
RightHand 12.311303 -0.000000 4.679070
RightHandThumb1 -24.326973 -0.000000 -32.862282
LeftUpLeg -3.171087 9.075425 -0.711423
LeftLeg -6.819030 -0.000000 0.000000
LeftFoot -19.122689 25.472834 -16.705507
LeftToeBase 24.378493 -0.000000 -0.000000
RightUpLeg -4.435254 -5.234707 0.432702
RightLeg -2.412182 -0.000000 0.000000
RightFoot -21.195926 -24.855117 18.787266
RightToeBase 22.379881 -0.000000 -0.000000
249
root 19.869098 35.775594 -22.048827 -168.184070 -0.798448 -179.407527
Spine -26.141748 1.067076 -0.434980
Head 18.646458 -2.747677 -2.753981
LeftShoulder -13.440995 -59.883987 54.037548
LeftArm 42.675492 -37.086955 -7.625827
LeftForeArm -66.020485 0.000000 79.501615
LeftHand 1.495802 -0.000000 -23.554248
LeftHandThumb1 -26.253704 0.000000 33.147579
RightShoulder -15.370390 27.806473 -54.274978
RightArm 129.422485 66.723261 91.950260
RightForeArm 47.050837 0.000000 109.812844
RightHand 12.320498 -0.000000 4.395462
RightHandThumb1 -24.326973 -0.000000 -32.862282
LeftUpLeg -3.183502 9.074339 -0.721289
LeftLeg -6.815583 -0.000000 0.000000
LeftFoot -19.104342 25.423329 -16.718622
LeftToeBase 24.377315 -0.000000 -0.000000
RightUpLeg -4.452000 -5.251249 0.424340
RightLeg -2.408004 -0.000000 0.000000
RightFoot -21.196694 -24.858289 18.779784
RightToeBase 22.324350 -0.000000 -0.000000
250
root 19.868178 35.776622 -22.044238 -168.171347 -0.782555 -179.420051
Spine -26.099414 1.024587 -0.354454
Head 18.568562 -2.578057 -2.864498
LeftShoulder -13.633729 -59.778349 54.261329
LeftArm 42.095541 -37.374162 -7.342831
LeftForeArm -66.026637 -0.000000 79.687281
LeftHand 1.544001 0.000000 -23.441601
LeftHandThumb1 -26.253704 0.000000 33.147579
RightShoulder -15.491574 27.944289 -54.808489
RightArm 129.895354 66.790380 92.764135
RightForeArm 47.110918 0.000000 110.157840
RightHand 12.351870 -0.000000 4.160192
RightHandThumb1 -24.326973 -0.000000 -32.862282
LeftUpLeg -3.200790 9.104526 -0.742901
LeftLeg -6.818379 -0.000000 0.000000
LeftFoot -19.088866 25.394820 -16.744384
LeftToeBase 24.378711 -0.000000 -0.000000
RightUpLeg -4.484737 -5.258675 0.414687
RightLeg -2.388536 -0.000000 0.000000
RightFoot -21.192394 -24.853828 18.765493
RightToeBase 22.318575 -0.000000 -0.000000
251
root 19.868026 35.778692 -22.041143 -168.181369 -0.770990 -179.438977
Spine -26.041897 0.978800 -0.290153
Head 18.521646 -2.446531 -2.962627
LeftShoulder -13.768491 -59.716974 54.427961
LeftArm 41.468514 -37.658831 -6.975039
LeftForeArm -65.929811 -0.000000 79.911359
LeftHand 1.534538 -0.000000 -23.295644
LeftHandThumb1 -26.253704 0.000000 33.147579
RightShoulder -15.484746 27.789940 -55.115537
RightArm 131.205469 66.901676 94.191313
RightForeArm 47.070993 -0.000000 110.408775
RightHand 12.238638 -0.000000 3.811890
RightHandThumb1 -24.326973 -0.000000 -32.862282
LeftUpLeg -3.191118 9.123581 -0.764609
LeftLeg -6.827778 -0.000000 0.000000
LeftFoot -19.064996 25.386613 -16.787154
LeftToeBase 24.324484 -0.000000 -0.000000
RightUpLeg -4.483708 -5.271431 0.397387
RightLeg -2.386733 -0.000000 0.000000
RightFoot -21.180614 -24.861235 18.735708
RightToeBase 22.385127 -0.000000 -0.000000
252
root 19.867872 35.780852 -22.038300 -168.185651 -0.756456 -179.454430
Spine -25.992985 0.938259 -0.236641
Head 18.494053 -2.326245 -3.039147
LeftShoulder -13.893541 -59.625349 54.553595
LeftArm 40.908027 -37.983406 -6.633892
LeftForeArm -65.733873 -0.000000 80.130867
LeftHand 1.572101 0.000000 -23.156125
LeftHandThumb1 -26.253704 0.000000 33.147579
RightShoulder -15.498125 27.863159 -55.466819
RightArm 131.828118 67.085253 94.954913
RightForeArm 47.019131 -0.000000 110.602877
RightHand 12.391057 -0.000000 3.562384
RightHandThumb1 -24.326973 -0.000000 -32.862282
LeftUpLeg -3.188869 9.140993 -0.782090
LeftLeg -6.825542 -0.000000 0.000000
LeftFoot -19.049009 25.360095 -16.821987
LeftToeBase 24.101809 -0.000000 -0.000000
RightUpLeg -4.486528 -5.306288 0.384793
RightLeg -2.385725 -0.000000 0.000000
RightFoot -21.169373 -24.815725 18.734277
RightToeBase 22.377524 -0.000000 -0.000000
253
root 19.868662 35.783406 -22.036387 -168.197172 -0.725166 -179.465432
Spine -25.940329 0.937323 -0.193199
Head 18.495218 -2.259594 -3.156909
LeftShoulder -13.948828 -59.590695 54.582034
LeftArm 40.332087 -38.286500 -6.179624
LeftForeArm -65.546089 -0.000000 80.339704
LeftHand 1.571338 -0.000000 -23.003354
LeftHandThumb1 -26.253704 0.000000 33.147579
RightShoulder -15.440402 27.747825 -55.707443
RightArm 133.013961 67.313222 96.167200
RightForeArm 47.015973 -0.000000 110.723416
RightHand 12.444451 -0.000000 3.387193
RightHandThumb1 -24.326973 -0.000000 -32.862282
LeftUpLeg -3.178554 9.209158 -0.804538
LeftLeg -6.835636 -0.000000 0.000000
LeftFoot -19.019170 25.344981 -16.865683
LeftToeBase 24.310012 -0.000000 -0.000000
RightUpLeg -4.484506 -5.294158 0.371522
RightLeg -2.384254 -0.000000 0.000000
RightFoot -21.146154 -24.802534 18.752817
RightToeBase 22.321892 -0.000000 -0.000000
254
root 19.868390 35.785999 -22.033181 -168.195681 -0.702267 -179.482859
Spine -25.902575 0.917284 -0.157268
Head 18.491982 -2.168024 -3.235117
LeftShoulder -14.045071 -59.538072 54.623633
LeftArm 39.804554 -38.579667 -5.747675
LeftForeArm -65.322244 -0.000000 80.573521
LeftHand 1.547528 -0.000000 -22.687772
LeftHandThumb1 -26.253704 0.000000 33.147579
RightShoulder -15.406116 27.821050 -55.962001
RightArm 133.685975 67.528858 96.887768
RightForeArm 47.153585 0.000000 110.788050
RightHand 12.518134 -0.000000 3.461876
RightHandThumb1 -24.326973 -0.000000 -32.862282
LeftUpLeg -3.179749 9.217099 -0.821595
LeftLeg -6.835532 -0.000000 0.000000
LeftFoot -18.997639 25.304816 -16.917988
LeftToeBase 24.240226 -0.000000 -0.000000
RightUpLeg -4.495876 -5.293414 0.351610
RightLeg -2.380283 -0.000000 0.000000
RightFoot -21.137766 -24.774392 18.758984
RightToeBase 22.358397 -0.000000 -0.000000
